<?xml version="1.0" encoding="UTF-8" standalone="no"?><svg xmlns="http://www.w3.org/2000/svg" xmlns:xlink="http://www.w3.org/1999/xlink" fill="#000000" height="373.9" preserveAspectRatio="xMidYMid meet" version="1" viewBox="58.7 69.1 393.3 373.9" width="393.3" zoomAndPan="magnify"><g fill="#000000" id="change1_1"><path d="M 451.621094 80.425781 C 451.480469 79.464844 451.398438 78.519531 451.050781 77.601562 C 450.699219 76.691406 450.136719 75.941406 449.605469 75.144531 C 449.246094 74.59375 449.070312 73.96875 448.621094 73.464844 C 448.535156 73.371094 448.414062 73.339844 448.328125 73.246094 C 447.644531 72.523438 446.785156 72.03125 445.953125 71.476562 C 445.339844 71.066406 444.796875 70.546875 444.132812 70.25 C 443.460938 69.945312 442.699219 69.890625 441.976562 69.703125 C 441.015625 69.457031 440.085938 69.148438 439.097656 69.121094 C 438.96875 69.117188 438.863281 69.050781 438.738281 69.050781 L 363.949219 69.050781 C 356.625 69.050781 350.6875 74.984375 350.6875 82.3125 C 350.6875 89.632812 356.625 95.570312 363.949219 95.570312 L 404.054688 95.570312 L 285.734375 201.546875 L 240.355469 142.609375 C 238.023438 139.585938 234.507812 137.707031 230.699219 137.460938 C 226.914062 137.195312 223.164062 138.617188 220.46875 141.320312 L 63.886719 297.90625 C 58.703125 303.085938 58.703125 311.476562 63.886719 316.65625 C 66.472656 319.246094 69.867188 320.542969 73.261719 320.542969 C 76.65625 320.542969 80.046875 319.246094 82.636719 316.65625 L 228.550781 170.75 L 273.433594 229.039062 C 275.683594 231.96875 279.046875 233.820312 282.722656 234.15625 C 286.363281 234.492188 290.035156 233.289062 292.785156 230.835938 L 425.476562 111.992188 L 425.476562 157.105469 C 425.476562 164.429688 431.414062 170.367188 438.738281 170.367188 C 446.0625 170.367188 452 164.429688 452 157.105469 L 452 82.3125 C 452 81.640625 451.714844 81.066406 451.621094 80.425781" fill="inherit"/><path d="M 292.558594 442.949219 L 331.195312 442.949219 L 331.195312 297.15625 L 292.558594 331.761719 L 292.558594 442.949219" fill="inherit"/><path d="M 124.929688 442.949219 L 163.566406 442.949219 L 163.566406 329.894531 L 124.929688 365.261719 L 124.929688 442.949219" fill="inherit"/><path d="M 180.804688 442.949219 L 219.441406 442.949219 L 219.441406 278.75 L 180.804688 314.117188 L 180.804688 442.949219" fill="inherit"/><path d="M 236.679688 442.949219 L 275.320312 442.949219 L 275.320312 328.289062 L 236.679688 278.097656 L 236.679688 442.949219" fill="inherit"/><path d="M 348.433594 442.949219 L 387.074219 442.949219 L 387.074219 247.113281 L 348.433594 281.71875 L 348.433594 442.949219" fill="inherit"/><path d="M 404.3125 442.949219 L 438.738281 442.949219 C 438.738281 383.785156 438.738281 200.839844 438.738281 200.839844 L 404.3125 231.675781 L 404.3125 442.949219" fill="inherit"/><path d="M 73.261719 442.949219 L 107.691406 442.949219 L 107.691406 381.039062 L 73.261719 412.550781 L 73.261719 442.949219" fill="inherit"/></g></svg>